<mxfile host="app.diagrams.net" modified="2021-10-29T10:24:24.776Z" agent="5.0 (X11; Linux x86_64) AppleWebKit/537.36 (KHTML, like Gecko) Chrome/96.0.1047.2 Safari/537.36 Edg/96.0.1047.2" etag="lDKucpXLSnKEH_-wO3nu" version="15.5.9" type="github">
  <diagram id="zq4EDngElbWwZI230A72" name="Page-1">
    <mxGraphModel dx="1756" dy="1142" grid="1" gridSize="10" guides="1" tooltips="1" connect="1" arrows="1" fold="1" page="1" pageScale="1" pageWidth="1169" pageHeight="827" math="0" shadow="0">
      <root>
        <mxCell id="0" />
        <mxCell id="1" parent="0" />
        <mxCell id="rrvN5EUfyGgxll58mSvy-1" value="User&#39;s browser" style="shape=umlLifeline;perimeter=lifelinePerimeter;whiteSpace=wrap;html=1;container=1;collapsible=0;recursiveResize=0;outlineConnect=0;" vertex="1" parent="1">
          <mxGeometry x="200" y="80" width="100" height="300" as="geometry" />
        </mxCell>
        <mxCell id="rrvN5EUfyGgxll58mSvy-2" value=":add_fillup view" style="shape=umlLifeline;perimeter=lifelinePerimeter;whiteSpace=wrap;html=1;container=1;collapsible=0;recursiveResize=0;outlineConnect=0;" vertex="1" parent="1">
          <mxGeometry x="360" y="80" width="100" height="300" as="geometry" />
        </mxCell>
        <mxCell id="rrvN5EUfyGgxll58mSvy-3" value=":FillupForm" style="shape=umlLifeline;perimeter=lifelinePerimeter;whiteSpace=wrap;html=1;container=1;collapsible=0;recursiveResize=0;outlineConnect=0;" vertex="1" parent="1">
          <mxGeometry x="520" y="80" width="100" height="300" as="geometry" />
        </mxCell>
        <mxCell id="rrvN5EUfyGgxll58mSvy-9" value="" style="html=1;points=[];perimeter=orthogonalPerimeter;" vertex="1" parent="rrvN5EUfyGgxll58mSvy-3">
          <mxGeometry x="45" y="90" width="10" height="110" as="geometry" />
        </mxCell>
        <mxCell id="rrvN5EUfyGgxll58mSvy-4" value=":VehicleModel" style="shape=umlLifeline;perimeter=lifelinePerimeter;whiteSpace=wrap;html=1;container=1;collapsible=0;recursiveResize=0;outlineConnect=0;" vertex="1" parent="1">
          <mxGeometry x="680" y="80" width="100" height="300" as="geometry" />
        </mxCell>
        <mxCell id="rrvN5EUfyGgxll58mSvy-13" value="" style="html=1;points=[];perimeter=orthogonalPerimeter;" vertex="1" parent="rrvN5EUfyGgxll58mSvy-4">
          <mxGeometry x="45" y="130" width="10" height="20" as="geometry" />
        </mxCell>
        <mxCell id="rrvN5EUfyGgxll58mSvy-5" value="Open add fillup page" style="html=1;verticalAlign=bottom;startArrow=oval;startFill=1;endArrow=block;startSize=8;rounded=0;" edge="1" parent="1" target="rrvN5EUfyGgxll58mSvy-1">
          <mxGeometry width="60" relative="1" as="geometry">
            <mxPoint x="120" y="150" as="sourcePoint" />
            <mxPoint x="244.94999999999982" y="149.84000000000003" as="targetPoint" />
          </mxGeometry>
        </mxCell>
        <mxCell id="rrvN5EUfyGgxll58mSvy-6" value="GET /" style="html=1;verticalAlign=bottom;endArrow=block;rounded=0;" edge="1" parent="1" source="rrvN5EUfyGgxll58mSvy-1" target="rrvN5EUfyGgxll58mSvy-2">
          <mxGeometry width="80" relative="1" as="geometry">
            <mxPoint x="255.89999999999986" y="160.32000000000005" as="sourcePoint" />
            <mxPoint x="406.8599999999999" y="160.76" as="targetPoint" />
            <Array as="points">
              <mxPoint x="350" y="160" />
            </Array>
          </mxGeometry>
        </mxCell>
        <mxCell id="rrvN5EUfyGgxll58mSvy-10" value="instantiate FillupForm" style="html=1;verticalAlign=bottom;endArrow=block;rounded=0;entryX=0.043;entryY=0.004;entryDx=0;entryDy=0;entryPerimeter=0;" edge="1" parent="1" source="rrvN5EUfyGgxll58mSvy-2" target="rrvN5EUfyGgxll58mSvy-9">
          <mxGeometry width="80" relative="1" as="geometry">
            <mxPoint x="430" y="290" as="sourcePoint" />
            <mxPoint x="510" y="290" as="targetPoint" />
          </mxGeometry>
        </mxCell>
        <mxCell id="rrvN5EUfyGgxll58mSvy-11" value="form object" style="html=1;verticalAlign=bottom;endArrow=open;dashed=1;endSize=8;rounded=0;exitX=-0.005;exitY=0.193;exitDx=0;exitDy=0;exitPerimeter=0;" edge="1" parent="1" source="rrvN5EUfyGgxll58mSvy-9" target="rrvN5EUfyGgxll58mSvy-2">
          <mxGeometry relative="1" as="geometry">
            <mxPoint x="510" y="290" as="sourcePoint" />
            <mxPoint x="415.89999999999986" y="233.14999999999998" as="targetPoint" />
          </mxGeometry>
        </mxCell>
        <mxCell id="rrvN5EUfyGgxll58mSvy-14" value="query for user&#39;s vehicles" style="html=1;verticalAlign=bottom;endArrow=block;entryX=0;entryY=0;rounded=0;" edge="1" target="rrvN5EUfyGgxll58mSvy-13" parent="1" source="rrvN5EUfyGgxll58mSvy-2">
          <mxGeometry x="0.5162" relative="1" as="geometry">
            <mxPoint x="414.9499999999998" y="280.65" as="sourcePoint" />
            <mxPoint as="offset" />
          </mxGeometry>
        </mxCell>
        <mxCell id="rrvN5EUfyGgxll58mSvy-15" value="QuerySet" style="html=1;verticalAlign=bottom;endArrow=open;dashed=1;endSize=8;exitX=0;exitY=0.95;rounded=0;" edge="1" source="rrvN5EUfyGgxll58mSvy-13" parent="1" target="rrvN5EUfyGgxll58mSvy-2">
          <mxGeometry x="-0.5162" relative="1" as="geometry">
            <mxPoint x="414.9499999999998" y="322.45000000000005" as="targetPoint" />
            <mxPoint as="offset" />
          </mxGeometry>
        </mxCell>
      </root>
    </mxGraphModel>
  </diagram>
</mxfile>
